<svg xmlns="http://www.w3.org/2000/svg" width="216" height="2376" viewBox="0 0 216 2376"><path fill="#0058A4" d="M106.3 192.5l-1 1 3.9 4-3.9 4 1 1 5-5"/><g fill="#FFF"><path d="M95 27.5h26v4H95zM95 19.5h26v4H95zM95 11.5h26v4H95zM114.9 66.9c0-5.2-4.3-9.5-9.5-9.5S96 61.7 96 66.8s4.3 9.5 9.5 9.5c1.9 0 3.7-.6 5.1-1.5l6.6 6.6 2.8-2.8-6.6-6.6c1-1.5 1.5-3.2 1.5-5.1zm-9.4 6.4c-3.6 0-6.5-2.9-6.5-6.5s2.9-6.5 6.5-6.5 6.5 2.9 6.5 6.5-2.9 6.5-6.5 6.5z"/></g><path fill="#333" d="M120 110.8l-3.2-3.1-8.8 8.7-8.8-8.7-3.2 3.1 8.8 8.9-8.8 8.7 3.2 3.3 8.8-8.9 8.8 8.9 3.2-3.3-8.8-8.7"/><g fill="#0058A4"><path d="M113.8 153.3l-3.4-3.4c-.1 0-.2-.1-.3-.2v3.9h3.9c0-.1-.1-.2-.2-.3zM109.9 154.7c-.3 0-.5 0-.6-.2-.1-.2-.2-.4-.2-.6h.1v-4.6h-6.7c-.3 0-.5 0-.6.2-.1.2-.2.4-.2.6v13.4c0 .3 0 .4.2.6.2.1.4.2.6.2h11.2c.3 0 .4 0 .6-.2.1-.2.2-.4.2-.6v-8.8h-4.6z"/></g><g fill="#FFF"><path d="M104.1 312.3l10.6-10.6-10.6-10.7-2.8 2.8 7.8 7.9-7.8 7.8M111.9 386.5l-10.6 10.6 10.6 10.7 2.8-2.8-7.8-7.8 7.8-7.9M108 252.3l7.8 7.9 2.9-2.9-10.7-10.6-10.7 10.6 2.9 2.9M118.7 345.7l-2.9-2.8-7.8 7.8-7.8-7.8-2.9 2.8 10.7 10.7"/></g><g fill="#F8D44C"><path d="M104.1 504.3l10.6-10.7-10.6-10.6-2.8 2.8 7.8 7.8-7.8 7.9M108 444.3l7.8 7.8 2.9-2.8-10.7-10.7-10.7 10.7 2.9 2.8M118.7 537.7l-2.9-2.8-7.8 7.8-7.8-7.8-2.9 2.8 10.7 10.7M111.9 578.5l-10.6 10.6 10.6 10.7 2.8-2.8-7.8-7.9 7.8-7.8"/></g><g fill="#0058A4"><path d="M104.1 696.3l10.6-10.7-10.6-10.6-2.8 2.8 7.8 7.8-7.8 7.9M108 636.3l7.8 7.8 2.9-2.8-10.7-10.7-10.7 10.7 2.9 2.8M111.9 770.5l-10.6 10.6 10.6 10.7 2.8-2.8-7.8-7.9 7.8-7.8M118.7 729.7l-2.9-2.8-7.8 7.8-7.8-7.8-2.9 2.8 10.7 10.7"/></g></svg>